<?xml version="1.0" encoding="utf-8"?>
<!-- Generator: Adobe Illustrator 25.2.0, SVG Export Plug-In . SVG Version: 6.00 Build 0)  -->
<svg version="1.1" id="Calque_1" xmlns="http://www.w3.org/2000/svg" xmlns:xlink="http://www.w3.org/1999/xlink" x="0px" y="0px"
	 viewBox="0 0 107.7 117.4" style="enable-background:new 0 0 107.7 117.4;" xml:space="preserve">
<style type="text/css">
	.st0{fill:#FFFFFF;}
	.st1{fill:none;stroke:#16AF98;stroke-width:4;stroke-miterlimit:10;}
	.st2{fill:none;stroke:#16AF98;stroke-width:4;stroke-linecap:round;stroke-linejoin:round;}
</style>
<circle class="st0" cx="53.8" cy="63.5" r="53.8"/>
<path class="st1" d="M17.4,12.5H8.8v70.3h45"/>
<path class="st1" d="M47.3,87.5H8.8v-4.7"/>
<path class="st2" d="M90.3,73.5c-4.9-1-33,3-36.5,9.3V11.4c3.5-6.4,31.7-10,36.5-9.4V73.5z"/>
<path class="st2" d="M17.3,73.5c4.9-1,33,3,36.4,9.3V11.4C50.2,5.1,22,1.5,17.3,2.1V73.5z"/>
<path class="st1" d="M90.3,12.5h8.6v70.3h-45"/>
<path class="st1" d="M60.4,82.8v7.6H47.3v-7.6"/>
<path class="st1" d="M60.4,87.5h38.4v-4.7"/>
</svg>
